 <svg width="66" height="20" viewBox="0 0 66 20" fill="none" xmlns="http://www.w3.org/2000/svg">
    <path
            fill-rule="evenodd"
            clip-rule="evenodd"
            d="M23.6348 6.12679C22.9606 6.47021 22.2215 6.62332 21.4967 6.60579C20.7719 6.62332 20.0332 6.47021 19.3589 6.12679C18.7938 5.83902 18.3378 5.44918 18.0014 5L18 5.00246C19.042 6.44684 19.6458 8.16116 19.6458 10H23.3615C23.3615 8.16547 23.9625 6.45484 25 5.0123L24.9923 5C24.6556 5.44918 24.1996 5.83902 23.6348 6.12679ZM23.3615 10H19.6458C19.6458 11.839 19.042 13.5532 18 14.9978L18.0014 15C18.3378 14.5505 18.7938 14.161 19.3589 13.8733C20.0332 13.5302 20.7719 13.3771 21.4967 13.3946C22.2215 13.3771 22.9606 13.5302 23.6348 13.8733C24.1996 14.161 24.6556 14.5505 24.9923 15L25 14.9877C23.9625 13.5453 23.3615 11.8347 23.3615 10Z"
            fill="url(#paint0_linear)"
    />
    <path
            fill-rule="evenodd"
            clip-rule="evenodd"
            d="M46.6342 6.12676C45.9603 6.47016 45.2213 6.62327 44.4965 6.60574C43.7718 6.62327 43.0331 6.47016 42.3589 6.12676C41.7941 5.839 41.3378 5.44917 41.001 5L41 5.00246C42.042 6.4468 42.6454 8.16107 42.6458 9.99985H46.3612C46.3612 8.16537 46.9622 6.45479 48 5.0123L47.9916 5C47.6552 5.44917 47.1993 5.839 46.6342 6.12676ZM46.3612 9.99985H42.6458C42.6454 11.8389 42.042 13.5532 41 14.9978L41.001 15C41.3378 14.5505 41.7941 14.161 42.3589 13.8732C43.0331 13.5301 43.7718 13.377 44.4965 13.3946C45.2213 13.377 45.9603 13.5301 46.6342 13.8732C47.1993 14.161 47.6552 14.5505 47.9916 15L48 14.9877C46.9622 13.5452 46.3612 11.8346 46.3612 9.99985Z"
            fill="url(#paint1_linear)"
    />
    <path
            fill-rule="evenodd"
            clip-rule="evenodd"
            d="M66 10C66 15.523 61.523 20 56 20C50.4774 20 46 15.523 46 10C46 4.47736 50.4774 0 56 0C61.523 0 66 4.47736 66 10Z"
            fill="black"
    />
    <path
            fill-rule="evenodd"
            clip-rule="evenodd"
            d="M55.9237 5C57.042 5 57.9617 5.29986 58.6828 5.89789C59.4036 6.49694 59.8151 7.29905 59.9167 8.3049H57.851C57.7213 7.85477 57.4813 7.50719 57.1299 7.26317C56.7784 7.01882 56.3395 6.89664 55.8127 6.89664C55.3414 6.89664 54.9622 6.98057 54.6758 7.1481C54.3891 7.31597 54.246 7.53833 54.246 7.81619C54.246 8.12282 54.4077 8.36007 54.7313 8.52726C55.0547 8.69513 55.6187 8.83152 56.4228 8.93712C57.689 9.09009 58.6018 9.39199 59.1613 9.84212C59.7204 10.2926 60 10.939 60 11.7817C60 12.7683 59.6326 13.5515 58.8977 14.1309C58.1629 14.7103 57.1945 15 55.993 15C54.8375 15 53.9014 14.7032 53.1852 14.1092C52.469 13.5152 52.0735 12.6966 52 11.6525H54.0935C54.1951 12.0931 54.424 12.4475 54.7797 12.7155C55.1357 12.9839 55.5723 13.1179 56.09 13.1179C56.6076 13.1179 57.0234 13.0198 57.3379 12.8231C57.6521 12.6272 57.8092 12.3662 57.8092 12.0403C57.8092 11.6863 57.6612 11.425 57.3657 11.2571C57.0698 11.0896 56.3859 10.9339 55.3137 10.7901C54.149 10.6371 53.3172 10.3498 52.8178 9.92842C52.3188 9.50672 52.0692 8.90801 52.0692 8.1323C52.0692 7.19345 52.4229 6.43669 53.13 5.86202C53.8371 5.28768 54.7682 5 55.9237 5Z"
            fill="white"
    />
    <path
            fill-rule="evenodd"
            clip-rule="evenodd"
            d="M33.0002 20C27.4771 20 23 15.5229 23 9.99984C23 4.47708 27.4771 0 33.0002 0C38.5229 0 43 4.47708 43 9.99984C43 15.5229 38.5229 20 33.0002 20Z"
            fill="#7000FF"
    />
    <path
            fill-rule="evenodd"
            clip-rule="evenodd"
            d="M31.4347 6.98531V13.0147H33.4686C34.3212 13.0147 35.0326 12.7279 35.6024 12.1545C36.1726 11.5812 36.4579 10.8627 36.4579 9.99983C36.4579 9.13725 36.1726 8.41913 35.6024 7.84546C35.0326 7.2718 34.3212 6.98531 33.4686 6.98531H31.4347ZM39 10.0293C39 11.4808 38.4784 12.6717 37.436 13.6032C36.3933 14.5344 35.0711 15 33.4686 15H29V5H33.4686C35.0605 5 36.3806 5.47286 37.4284 6.41892C38.4763 7.36533 39 8.56843 39 10.0293Z"
            fill="white"
    />
    <path
            fill-rule="evenodd"
            clip-rule="evenodd"
            d="M20 9.99984C20 15.5229 15.5229 20 10.0002 20C4.47708 20 0 15.5229 0 9.99984C0 4.47708 4.47708 0 10.0002 0C15.5229 0 20 4.47708 20 9.99984Z"
            fill="black"
    />
    <path
            fill-rule="evenodd"
            clip-rule="evenodd"
            d="M10.1434 12.9311C10.6112 12.9311 11.0482 12.8187 11.4542 12.5937C11.8602 12.3686 12.1919 12.0549 12.4497 11.6528H15C14.6565 12.658 14.0379 13.4679 13.1449 14.0804C12.2516 14.6937 11.2368 15 10.1006 15C8.65821 15 7.44735 14.5258 6.46868 13.5779C5.48934 12.6292 5 11.4467 5 10.0289C5 8.60172 5.49676 7.40667 6.48994 6.44414C7.48346 5.48127 8.70107 5 10.1434 5C11.251 5 12.2445 5.30189 13.1233 5.90534C14.0021 6.50878 14.6227 7.30886 14.9858 8.3049H12.4214C12.1632 7.91231 11.8338 7.60602 11.4326 7.38501C11.0317 7.16503 10.6017 7.05469 10.1434 7.05469C9.36015 7.05469 8.70343 7.33492 8.17326 7.89539C7.64343 8.45551 7.37817 9.15744 7.37817 10.0002C7.37817 10.8432 7.64343 11.5421 8.17326 12.0978C8.70343 12.6536 9.36015 12.9311 10.1434 12.9311Z"
            fill="white"
    />
    <defs>
        <linearGradient id="paint0_linear" x1="25.0002" y1="10" x2="18" y2="10" gradientUnits="userSpaceOnUse">
            <stop stop-color="#7000FF" />
            <stop offset="1" stop-color="#231F1F" />
        </linearGradient>
        <linearGradient
                id="paint1_linear"
                x1="40.9999"
                y1="9.99999"
                x2="47.9998"
                y2="9.99999"
                gradientUnits="userSpaceOnUse"
        >
            <stop stop-color="#7000FF" />
            <stop offset="1" stop-color="#231F1F" />
        </linearGradient>
    </defs>
</svg>
